{
	"asset":{
		"version":"2.0",
		"generator":"Created using the official Cinema 4D glTF Exporter 1.000x287526"
	},
	"scenes":[{
		"nodes":[0]
	}],
	"nodes":[{
		"name":"01",
		"translation":[0.0,
		0.0,
		0.0],
		"rotation":[1.0,
		-6.123234262925839e-17,
		6.123234262925839e-17,
		-6.123234262925839e-17],
		"scale":[1.0,
		1.0,
		1.0],
		"mesh":0
	}],
	"meshes":[{
		"primitives":[{
			"attributes":{
				"POSITION":1,
				"NORMAL":2,
				"TEXCOORD_0":3
			},
			"indices":0,
			"material":0
		}]
	}],
	"accessors":[{
		"bufferView":0,
		"min":[0],
		"type":"SCALAR",
		"max":[2648],
		"componentType":5123,
		"count":5460,
		"byteOffset":0
	},
	{
		"bufferView":1,
		"min":[-0.4749999940395355,
		-0.011300000362098217,
		-0.4749999940395355],
		"type":"VEC3",
		"max":[0.4749999940395355,
		0.05152423307299614,
		0.4749999940395355],
		"componentType":5126,
		"count":2649,
		"byteOffset":0
	},
	{
		"bufferView":1,
		"min":[-1.0,
		-1.0,
		-1.0],
		"type":"VEC3",
		"max":[1.0,
		1.0,
		1.0],
		"componentType":5126,
		"count":2649,
		"byteOffset":12
	},
	{
		"bufferView":1,
		"min":[0.0044579585082829,
		0.0044579580426216129],
		"type":"VEC2",
		"max":[0.9823828935623169,
		0.995542049407959],
		"componentType":5126,
		"count":2649,
		"byteOffset":24
	}],
	"bufferViews":[{
		"buffer":0,
		"byteOffset":0,
		"byteLength":10920,
		"target":34963
	},
	{
		"buffer":0,
		"byteOffset":10920,
		"byteLength":84768,
		"target":34962,
		"byteStride":32
	}],
	"buffers":[{
		"uri":"data:application/octet-stream;base64,",
		"byteLength":95688
	}],
	"images":[{
		"uri":"data:image/jpeg;base64,"
	}],
	"samplers":[{
		"magFilter":9729,
		"minFilter":9729,
		"wrapS":10497,
		"wrapT":10497
	}],
	"textures":[{
		"sampler":0,
		"source":0
	}],
	"materials":[{
		"pbrMetallicRoughness":{
			"baseColorTexture":{
				"index":0
			},
			"baseColorFactor":[1.0,
			1.0,
			1.0,
			1.0],
			"metallicFactor":0.13,
			"roughnessFactor":0.3
		},
		"emissiveFactor":[0.0,
		0.0,
		0.0],
		"alphaMode":"OPAQUE",
		"doubleSided":true,
		"name":"PBR"
	}]
}