{"asset":{"version":"2.0","generator":"babylon.js glTF exporter for 3dsmax 2019 v20200130.3"},"scene":0,"scenes":[{"nodes":[0,1],"extensions":{}}],"nodes":[{"mesh":0,"translation":[0.0,-5.32907052E-15,0.0],"rotation":[0.7071068,0.0,0.0,0.7071067],"scale":[1.0,1.0,1.0],"name":"Black"},{"translation":[0.0,0.0,0.0],"rotation":[0.0,0.0,0.0,1.0],"scale":[1.0,1.0,1.0],"name":"Default light"}],"meshes":[{"primitives":[{"attributes":{"POSITION":1,"NORMAL":2,"TEXCOORD_0":3},"indices":0,"mode":4,"material":0}],"name":"Black"}],"accessors":[{"bufferView":0,"componentType":5123,"count":5490,"type":"SCALAR","name":"accessorIndices"},{"bufferView":1,"componentType":5126,"count":5490,"max":[47.5,47.5,5.15242338],"min":[-47.5,-47.5,-1.13],"type":"VEC3","name":"accessorPositions"},{"bufferView":1,"byteOffset":65880,"componentType":5126,"count":5490,"type":"VEC3","name":"accessorNormals"},{"bufferView":2,"componentType":5126,"count":5490,"type":"VEC2","name":"accessorUVs"}],"bufferViews":[{"buffer":0,"byteLength":10980,"name":"bufferViewScalar"},{"buffer":0,"byteOffset":10980,"byteLength":131760,"byteStride":12,"name":"bufferViewFloatVec3"},{"buffer":0,"byteOffset":142740,"byteLength":43920,"byteStride":8,"name":"bufferViewFloatVec2"}],"buffers":[{"uri":"wh.bin","byteLength":186660}],"materials":[{"pbrMetallicRoughness":{"baseColorFactor":[1.0,1.0,1.0,1.0],"baseColorTexture":{"index":0,"texCoord":0},"metallicFactor":0.0,"roughnessFactor":0.7022211},"emissiveFactor":[0.0,0.0,0.0],"alphaMode":"OPAQUE","name":"Mat"}],"textures":[{"sampler":0,"source":0,"name":"tex05_03.jpg"}],"images":[{"uri":"./tex05_03.jpg"}],"samplers":[{"magFilter":9729,"minFilter":9987,"wrapS":10497,"wrapT":10497}]}